<svg xmlns="http://www.w3.org/2000/svg" width="96" height="97" viewBox="0 0 96 97" fill="none"><path opacity="0.935" fill-rule="evenodd" clip-rule="evenodd" d="M19.3819 0.865984C29.2646 0.0867709 36.7923 3.86724 41.9652 12.2074C44.4492 17.1618 45.3445 22.4015 44.6513 27.9262C43.5902 27.9262 42.5289 27.9262 41.4678 27.9262C41.7028 23.8474 41.2053 19.868 39.9755 15.9878C35.5706 7.07027 28.4409 3.25663 18.586 4.54696C10.7266 6.56985 5.7855 11.511 3.76261 19.3704C2.48629 29.0555 6.16727 36.119 14.8055 40.5609C16.402 41.2419 18.0601 41.7062 19.7798 41.9537C22.2288 42.1801 24.6827 42.2796 27.1418 42.2521C27.1418 43.3132 27.1418 44.3746 27.1418 45.4357C18.8001 46.5131 11.6703 44.1254 5.75233 38.2727C-0.30861 30.8888 -1.56876 22.731 1.97187 13.7992C5.5999 6.55606 11.4032 2.24502 19.3819 0.865984Z" fill="#D30C0B"></path><path opacity="0.935" fill-rule="evenodd" clip-rule="evenodd" d="M70.3189 0.865984C80.2016 0.0867709 87.7293 3.86724 92.9022 12.2074C96.4837 19.5031 96.4837 26.7986 92.9022 34.0943C89.145 40.4325 83.607 44.18 76.288 45.3362C73.7022 45.4357 71.1155 45.4689 68.5281 45.4357C68.5281 44.3746 68.5281 43.3132 68.5281 42.2521C70.9872 42.2796 73.4411 42.1801 75.8901 41.9537C84.3738 40.3014 89.7128 35.2939 91.9073 26.9313C93.196 16.7385 89.1834 9.54235 79.8695 5.34285C70.7463 2.61369 63.2848 5.03452 57.4852 12.6053C55.9018 15.0337 54.9069 17.6867 54.5006 20.5642C54.2742 23.0131 54.1747 25.4671 54.2021 27.9262C53.141 27.9262 52.0797 27.9262 51.0186 27.9262C49.8906 19.4559 52.3447 12.2599 58.3805 6.33771C61.8492 3.38053 65.8287 1.55664 70.3189 0.865984ZM70.1199 15.192C71.181 15.192 72.2423 15.192 73.3034 15.192C73.3034 17.3143 73.3034 19.4366 73.3034 21.5591C72.2423 21.5591 71.181 21.5591 70.1199 21.5591C70.1199 19.4366 70.1199 17.3143 70.1199 15.192Z" fill="#D30C0B"></path><path opacity="0.987" fill-rule="evenodd" clip-rule="evenodd" d="M15.9994 8.82471C17.0605 8.82471 18.1219 8.82471 19.183 8.82471C19.1169 10.6865 19.1834 12.5436 19.3819 14.3959C20.8852 13.8839 22.3775 13.3533 23.8588 12.8041C23.8928 13.8715 23.9923 14.9326 24.1573 15.9877C25.0859 15.6561 26.0143 15.3245 26.9429 14.9928C27.1416 12.9411 27.2079 10.885 27.1418 8.82471C28.203 8.82471 29.2643 8.82471 30.3254 8.82471C30.3254 10.4828 30.3254 12.1409 30.3254 13.799C31.3859 13.5671 32.414 13.2355 33.4095 12.8041C33.5089 18.375 33.5422 23.9462 33.5089 29.5178C34.0396 29.5178 34.5701 29.5178 35.1007 29.5178C35.1007 30.5789 35.1007 31.6402 35.1007 32.7013C26.6112 32.7013 18.1219 32.7013 9.63232 32.7013C9.63232 31.6402 9.63232 30.5789 9.63232 29.5178C10.1629 29.5178 10.6935 29.5178 11.2241 29.5178C11.2241 25.3394 11.2241 21.161 11.2241 16.9826C12.8159 16.5183 14.4076 16.054 15.9994 15.5897C15.9994 13.3347 15.9994 11.0797 15.9994 8.82471ZM20.3768 17.5795C20.7724 21.4871 20.9051 25.4665 20.7747 29.5178C18.6523 29.5178 16.53 29.5178 14.4076 29.5178C14.4076 26.2015 14.4076 22.8854 14.4076 19.5692C16.4539 19.0198 18.4436 18.3565 20.3768 17.5795ZM29.9275 17.5795C30.323 21.4871 30.4557 25.4665 30.3254 29.5178C28.203 29.5178 26.0807 29.5178 23.9583 29.5178C23.9583 26.2015 23.9583 22.8854 23.9583 19.5692C26.0045 19.0198 27.9942 18.3565 29.9275 17.5795Z" fill="#D30C0B"></path><path opacity="0.986" fill-rule="evenodd" clip-rule="evenodd" d="M63.9517 12.0085C70.1864 11.9754 76.4208 12.0085 82.655 12.108C84.28 12.6718 85.3744 13.7661 85.9381 15.391C86.0708 20.5643 86.0708 25.7376 85.9381 30.9108C85.3744 32.5359 84.28 33.6302 82.655 34.1939C76.4206 34.3266 70.186 34.3266 63.9517 34.1939C62.3267 33.6302 61.2323 32.5359 60.6686 30.9108C60.5359 25.7376 60.5359 20.5643 60.6686 15.391C61.2693 13.7626 62.3637 12.6351 63.9517 12.0085ZM65.3445 15.1921C65.8751 15.1921 66.4056 15.1921 66.9362 15.1921C66.9362 18.3756 66.9362 21.5592 66.9362 24.7427C70.1198 24.7427 73.3033 24.7427 76.4869 24.7427C76.4869 21.5592 76.4869 18.3756 76.4869 15.1921C78.0801 15.159 79.6718 15.1921 81.2622 15.2916C81.8579 15.3723 82.2891 15.6707 82.5555 16.1869C82.8806 20.618 82.9471 25.0617 82.7545 29.518C82.655 30.4134 82.1576 30.9108 81.2622 31.0103C75.9562 31.143 70.6504 31.143 65.3445 31.0103C64.4491 30.9108 63.9517 30.4134 63.8522 29.518C63.7195 25.2734 63.7195 21.0285 63.8522 16.7838C63.9875 15.8864 64.4849 15.3558 65.3445 15.1921Z" fill="#D30C0B"></path><path opacity="0.937" fill-rule="evenodd" clip-rule="evenodd" d="M44.2533 31.1099C46.6409 31.1099 49.0286 31.1099 51.4163 31.1099C51.584 32.6772 51.9819 34.1695 52.6101 35.5867C53.1252 35.8482 53.6559 35.9809 54.2019 35.9847C55.4456 35.2469 56.6725 34.4842 57.8828 33.6965C59.5078 35.3215 61.1327 36.9463 62.7577 38.5713C61.9699 39.7817 61.2073 41.0085 60.4695 42.2523C60.4995 42.9449 60.7315 43.5751 61.1659 44.1425C62.541 44.5361 63.9338 44.8345 65.3443 45.0379C65.3443 47.4256 65.3443 49.8132 65.3443 52.2009C63.7762 52.3688 62.2839 52.7668 60.8674 53.3947C60.606 53.9098 60.4733 54.4405 60.4695 54.9865C61.2073 56.2303 61.9699 57.4571 62.7577 58.6675C61.1327 60.2925 59.5078 61.9173 57.8828 63.5423C56.6725 62.7545 55.4456 61.9919 54.2019 61.2541C53.5092 61.2841 52.8791 61.5161 52.3116 61.9505C51.9179 63.3264 51.6194 64.7192 51.4163 66.1289C49.0286 66.1289 46.6409 66.1289 44.2533 66.1289C44.0855 64.5616 43.6876 63.0693 43.0594 61.652C42.5443 61.3906 42.0136 61.2579 41.4677 61.2541C40.2239 61.9919 38.997 62.7545 37.7867 63.5423C36.1617 61.9173 34.5369 60.2925 32.9119 58.6675C33.7591 57.3708 34.555 56.0442 35.2995 54.688C35.1087 54.112 34.8433 53.5815 34.5037 53.0963C33.1254 52.7767 31.7658 52.4118 30.4247 52.0019C30.292 49.747 30.292 47.4918 30.4247 45.2369C31.7658 44.827 33.1254 44.4621 34.5037 44.1425C34.8433 43.6572 35.1087 43.1268 35.2995 42.5507C34.555 41.1946 33.7591 39.868 32.9119 38.5713C34.5369 36.9463 36.1617 35.3215 37.7867 33.6965C38.997 34.4842 40.2239 35.2469 41.4677 35.9847C42.1603 35.9546 42.7904 35.7226 43.3579 35.2883C43.7517 33.9124 44.0501 32.5196 44.2533 31.1099ZM47.0389 34.2934C47.5695 34.2934 48.1 34.2934 48.6307 34.2934C48.8644 35.5601 49.1297 36.8204 49.4265 38.0739C51.0129 38.6674 52.6047 39.2643 54.2019 39.8646C55.251 39.3149 56.2789 38.7179 57.2859 38.0739C57.6506 38.4386 58.0156 38.8035 58.3803 39.1682C57.7362 40.1752 57.1393 41.2031 56.5895 42.2523C57.1898 43.8494 57.7867 45.4412 58.3803 47.0276C59.6338 47.3245 60.8941 47.5897 62.1607 47.8235C62.1607 48.3542 62.1607 48.8846 62.1607 49.4153C60.8941 49.6491 59.6338 49.9143 58.3803 50.2112C57.7867 51.7976 57.1898 53.3893 56.5895 54.9865C57.1393 56.0357 57.7362 57.0636 58.3803 58.0705C58.0156 58.4353 57.6506 58.8002 57.2859 59.1649C56.2789 58.5208 55.251 57.9239 54.2019 57.3741C52.6047 57.9744 51.0129 58.5714 49.4265 59.1649C49.1297 60.4184 48.8644 61.6787 48.6307 62.9454C48.1 62.9454 47.5695 62.9454 47.0389 62.9454C46.8051 61.6787 46.5399 60.4184 46.243 59.1649C44.6566 58.5714 43.0648 57.9744 41.4677 57.3741C40.4185 57.9239 39.3906 58.5208 38.3836 59.1649C38.0189 58.8002 37.654 58.4353 37.2893 58.0705C37.9333 57.0636 38.5302 56.0357 39.08 54.9865C38.4797 53.3893 37.8828 51.7976 37.2893 50.2112C36.0357 49.9143 34.7754 49.6491 33.5088 49.4153C33.5088 48.8846 33.5088 48.3542 33.5088 47.8235C34.7754 47.5897 36.0357 47.3245 37.2893 47.0276C37.8828 45.4412 38.4797 43.8494 39.08 42.2523C38.5302 41.2031 37.9333 40.1752 37.2893 39.1682C37.654 38.8035 38.0189 38.4386 38.3836 38.0739C39.3906 38.7179 40.4185 39.3149 41.4677 39.8646C43.0648 39.2643 44.6566 38.6674 46.243 38.0739C46.5399 36.8204 46.8051 35.5601 47.0389 34.2934ZM46.8399 45.6348C50.2752 45.5865 51.4358 47.1782 50.3219 50.4101C49.0781 51.7056 47.6521 51.9376 46.044 51.1065C44.7485 49.8628 44.5165 48.4367 45.3476 46.8286C45.7682 46.3071 46.2657 45.9092 46.8399 45.6348Z" fill="#D30C0B"></path><path opacity="0.93" fill-rule="evenodd" clip-rule="evenodd" d="M46.243 42.2523C51.9074 41.9142 54.527 44.5671 54.1024 50.2112C52.838 53.9793 50.2181 55.538 46.243 54.887C42.4749 53.6225 40.9162 51.0027 41.5672 47.0276C42.2318 44.5393 43.7905 42.9475 46.243 42.2523ZM46.8399 45.6348C46.2657 45.9092 45.7683 46.3071 45.3477 46.8286C44.5166 48.4367 44.7486 49.8628 46.0441 51.1065C47.6522 51.9376 49.0782 51.7056 50.322 50.4101C51.4358 47.1782 50.2752 45.5865 46.8399 45.6348Z" fill="#D30C0B"></path><path opacity="0.935" fill-rule="evenodd" clip-rule="evenodd" d="M19.382 51.8027C21.9686 51.8027 24.5553 51.8027 27.1419 51.8027C27.1419 52.8639 27.1419 53.9252 27.1419 54.9863C21.6537 54.3924 16.5466 55.4867 11.8211 58.2693C3.90329 64.3827 1.61511 72.1759 4.95655 81.6485C9.07411 89.8603 15.7397 93.6077 24.9532 92.8904C31.8444 91.7018 36.7855 87.9545 39.7766 81.6485C40.4577 80.0522 40.9219 78.3939 41.1694 76.6742C41.3958 74.2253 41.4953 71.7713 41.4679 69.3123C42.529 69.3123 43.5903 69.3123 44.6514 69.3123C45.6612 76.8189 43.771 83.4512 38.9807 89.2094C31.4857 96.5185 22.8304 98.2762 13.0149 94.4822C3.58114 89.5795 -0.696759 81.7866 0.181224 71.103C2.23804 60.3247 8.6383 53.8911 19.382 51.8027Z" fill="#D30C0B"></path><path opacity="0.935" fill-rule="evenodd" clip-rule="evenodd" d="M68.5278 51.8028C76.0345 50.793 82.6668 52.6832 88.425 57.4735C95.7341 64.9685 97.4918 73.6238 93.6978 83.4393C88.471 93.2991 80.2801 97.5108 69.1248 96.074C58.9674 93.6766 52.9653 87.3427 51.1178 77.0722C51.0183 74.4864 50.9851 71.8997 51.0183 69.3123C52.0794 69.3123 53.1408 69.3123 54.2019 69.3123C54.1744 71.7714 54.2739 74.2253 54.5003 76.6742C56.1526 85.158 61.1601 90.497 69.5227 92.6915C79.7154 93.9802 86.9117 89.9676 91.1112 80.6537C93.8291 71.4974 91.4082 64.036 83.8487 58.2694C79.1231 55.4867 74.0161 54.3924 68.5278 54.9863C68.5278 53.9252 68.5278 52.8639 68.5278 51.8028Z" fill="#D30C0B"></path><path opacity="0.952" fill-rule="evenodd" clip-rule="evenodd" d="M20.7746 58.1699C26.8172 57.9743 29.4368 60.8924 28.634 66.9246C28.3474 68.0494 27.9827 69.1438 27.5396 70.2077C29.3548 71.5583 31.1124 72.9841 32.8124 74.4855C33.0661 74.9267 33.265 75.3911 33.4093 75.8784C33.542 78.9292 33.542 81.9802 33.4093 85.0311C32.8456 86.6561 31.7513 87.7504 30.1263 88.3141C24.953 88.4468 19.7797 88.4468 14.6065 88.3141C12.9815 87.7504 11.8872 86.6561 11.3234 85.0311C11.1334 81.7679 11.1997 78.5179 11.5224 75.2814C11.9353 74.4698 12.499 73.7734 13.2136 73.1922C14.5964 72.274 15.9229 71.2791 17.1931 70.2077C16.0808 67.9069 15.7161 65.4861 16.0987 62.9452C16.7651 60.4551 18.3236 58.8633 20.7746 58.1699ZM21.3715 61.5524C24.6653 61.4981 25.9586 63.0898 25.2514 66.3277C24.6878 68.019 24.1239 69.7102 23.5602 71.4015C25.4894 72.9982 27.4791 74.5236 29.5293 75.9778C29.8909 76.336 30.1231 76.767 30.2257 77.2712C30.3585 79.3936 30.3585 81.5158 30.2257 83.6383C30.1263 84.5336 29.6288 85.0311 28.7335 85.1305C24.4888 85.2633 20.2439 85.2633 15.9993 85.1305C15.1039 85.0311 14.6065 84.5336 14.507 83.6383C14.3743 81.5158 14.3743 79.3936 14.507 77.2712C14.6007 76.9237 14.7333 76.5921 14.9049 76.2763C17.055 74.7225 19.1442 73.0975 21.1725 71.4015C20.4085 69.2751 19.7451 67.1196 19.1828 64.9349C19.2696 63.3638 19.999 62.2362 21.3715 61.5524Z" fill="#D30C0B"></path><path opacity="0.982" fill-rule="evenodd" clip-rule="evenodd" d="M73.1043 59.3638C77.3931 61.6607 81.6378 64.0484 85.8385 66.5268C86.0374 72.7597 86.1037 78.9943 86.0374 85.2301C77.5479 85.2301 69.0586 85.2301 60.569 85.2301C60.5028 78.9943 60.569 72.7597 60.768 66.5268C64.9394 64.2059 69.0516 61.8183 73.1043 59.3638ZM73.1043 63.3432C76.3413 65.0283 79.5249 66.819 82.6549 68.7154C82.8539 73.1571 82.9201 77.6009 82.8539 82.0466C81.7928 82.0466 80.7314 82.0466 79.6703 82.0466C79.6703 77.8019 79.6703 73.557 79.6703 69.3124C75.4257 69.3124 71.1808 69.3124 66.9361 69.3124C66.9361 73.557 66.9361 77.8019 66.9361 82.0466C65.875 82.0466 64.8137 82.0466 63.7526 82.0466C63.6863 77.6009 63.7526 73.1571 63.9516 68.7154C67.0149 66.9195 70.066 65.1288 73.1043 63.3432ZM70.1197 72.4959C70.1197 73.557 70.1197 74.6183 70.1197 75.6795C72.2421 75.6795 74.3643 75.6795 76.4868 75.6795C76.4868 74.6183 76.4868 73.557 76.4868 72.4959C74.3643 72.4959 72.2421 72.4959 70.1197 72.4959ZM70.1197 78.863C70.1197 79.9241 70.1197 80.9854 70.1197 82.0466C72.2421 82.0466 74.3643 82.0466 76.4868 82.0466C76.4868 80.9854 76.4868 79.9241 76.4868 78.863C74.3643 78.863 72.2421 78.863 70.1197 78.863Z" fill="#D30C0B"></path></svg>