<svg xmlns="http://www.w3.org/2000/svg" width="96" height="97" viewBox="0 0 96 97" fill="none"><path opacity="0.931" fill-rule="evenodd" clip-rule="evenodd" d="M22.4395 23.6953C31.9857 23.6641 41.5317 23.6953 51.0775 23.7889C51.642 24.0751 51.8915 24.543 51.8262 25.1927C51.8915 25.8424 51.642 26.3104 51.0775 26.5966C41.4691 26.7214 31.8606 26.7214 22.2523 26.5966C21.6878 26.3104 21.4382 25.8424 21.5036 25.1927C21.5122 24.4989 21.8242 23.9999 22.4395 23.6953Z" fill="#D30C0B"></path><path opacity="0.943" fill-rule="evenodd" clip-rule="evenodd" d="M2.22447 0.766113C21.3165 0.766113 40.4085 0.766113 59.5005 0.766113C60.4166 1.0888 61.0717 1.71273 61.4659 2.63788C61.7206 3.74348 61.8142 4.86654 61.7467 6.00706C65.7086 5.41459 67.4555 7.09918 66.9876 11.0608C68.05 11.0297 69.1107 11.0609 70.1696 11.1544C71.0742 11.56 71.7293 12.2151 72.135 13.1198C72.2285 16.0515 72.2598 18.984 72.2285 21.9171C82.8832 22.1911 90.339 27.1825 94.5962 36.8912C95.1865 38.6306 95.6545 40.3778 96 42.1322C96 44.1288 96 46.1252 96 48.1218C95.3359 52.7574 93.4954 56.8753 90.4783 60.4755C89.6672 61.2242 88.856 61.2242 88.045 60.4755C87.7723 59.939 87.7099 59.3775 87.8578 58.7909C89.6281 56.8115 90.9696 54.5654 91.8821 52.0525C91.843 51.9428 91.7805 51.8492 91.6949 51.7718C85.54 50.0615 79.3632 48.5016 73.1644 47.0923C68.6722 51.5846 64.1799 56.0768 59.6877 60.5691C65.8232 65.4912 72.6241 66.6766 80.09 64.1254C81.0483 63.7398 81.9842 63.3032 82.8976 62.8152C84.1446 62.5346 84.831 63.0336 84.9566 64.3126C84.9332 64.6171 84.8396 64.8979 84.6758 65.1549C80.909 67.3993 76.8222 68.5224 72.4157 68.5241C72.5024 73.4002 72.4088 78.2668 72.135 83.1238C67.6311 87.659 63.1078 92.1512 58.5647 96.6006C43.341 96.6006 28.1172 96.6006 12.8935 96.6006C10.9687 95.5844 10.22 93.9621 10.6474 91.734C6.61148 92.128 4.86449 90.3186 5.40647 86.3059C3.10091 86.8921 1.35392 86.2057 0.165527 84.2469C0.165527 57.1063 0.165527 29.9657 0.165527 2.82506C0.664666 1.95156 1.35098 1.26525 2.22447 0.766113ZM3.53471 3.57376C21.8157 3.54256 40.0967 3.57376 58.3775 3.66735C58.731 4.3854 58.8557 5.16531 58.7518 6.00706C47.7082 5.97586 36.6648 6.00706 25.6216 6.10065C24.6977 6.91369 24.6353 7.78719 25.4344 8.72112C38.2764 9.00002 51.1291 9.0936 63.9928 9.00189C63.9928 9.68821 63.9928 10.3745 63.9928 11.0608C46.9595 11.0296 29.9264 11.0608 12.8935 11.1544C11.7272 11.5218 11.0097 12.3017 10.741 13.4941C10.6474 38.5758 10.6162 63.6575 10.6474 88.7392C9.91056 88.794 9.19306 88.7317 8.49489 88.552C8.4013 62.0354 8.3701 35.5186 8.4013 9.00189C11.8958 9.03307 15.3898 9.00187 18.8832 8.9083C19.6551 8.72455 20.0295 8.2254 20.0063 7.41089C19.951 6.86369 19.7013 6.42693 19.2575 6.10065C15.3892 5.97586 11.5209 5.97586 7.65259 6.10065C6.56074 6.4438 5.84321 7.16132 5.50006 8.25318C5.40647 33.2723 5.37527 58.2917 5.40647 83.311C4.65777 83.311 3.90906 83.311 3.16035 83.311C3.03635 56.6926 3.16112 30.1135 3.53471 3.57376ZM13.8294 14.0557C32.298 13.9933 50.7661 14.0557 69.2337 14.2428C69.4177 16.9166 69.48 19.5995 69.4209 22.2914C59.0783 24.1795 52.6207 30.2315 50.0481 40.4476C48.4017 51.2203 52.1142 59.5497 61.1851 65.4357C63.7536 66.8846 66.4989 67.7892 69.4209 68.1497C69.4209 72.3299 69.4209 76.5103 69.4209 80.6906C65.864 80.6593 62.3076 80.6906 58.7518 80.7841C57.5221 81.203 56.7421 82.0453 56.4121 83.311C56.3185 86.8045 56.2873 90.2983 56.3185 93.7929C42.1478 93.8547 27.9847 93.7924 13.8294 93.6057C13.5802 67.0763 13.5802 40.5595 13.8294 14.0557ZM71.4798 24.9119C74.3369 24.8005 77.0822 25.2685 79.7156 26.3157C76.9774 32.3226 74.2633 38.3435 71.5734 44.3783C66.894 49.0577 62.2146 53.7371 57.5352 58.4165C52.2959 51.8829 51.2354 44.7079 54.3532 36.8912C57.9123 29.824 63.6212 25.8308 71.4798 24.9119ZM82.3361 27.5324C86.3301 29.5614 89.2936 32.6187 91.227 36.704C92.9372 40.602 93.4675 44.6574 92.818 48.8705C86.8096 47.447 80.8823 45.8248 75.0362 44.0039C77.5432 38.5401 79.9765 33.0496 82.3361 27.5324ZM59.5005 83.6854C61.9969 83.6541 64.4927 83.6854 66.9876 83.779C64.5287 86.4253 62.0018 89.0145 59.4069 91.5468C59.2546 88.9123 59.2857 86.2918 59.5005 83.6854Z" fill="#D30C0B"></path><path opacity="0.93" fill-rule="evenodd" clip-rule="evenodd" d="M22.4395 33.9902C29.8021 33.959 37.1643 33.9902 44.5263 34.0838C45.2292 34.2689 45.5412 34.7369 45.4622 35.4877C45.5275 36.1373 45.278 36.6053 44.7135 36.8915C37.2264 37.0163 29.7393 37.0163 22.2523 36.8915C21.6878 36.6053 21.4382 36.1373 21.5036 35.4877C21.5122 34.7938 21.8242 34.2948 22.4395 33.9902Z" fill="#D30C0B"></path><path opacity="0.929" fill-rule="evenodd" clip-rule="evenodd" d="M22.4395 44.2847C28.8038 44.2534 35.1678 44.2847 41.5315 44.3783C42.2401 44.5784 42.5522 45.0463 42.4674 45.7821C42.5327 46.4318 42.2832 46.8997 41.7187 47.1859C35.2298 47.3108 28.7411 47.3108 22.2523 47.1859C21.6878 46.8997 21.4382 46.4318 21.5036 45.7821C21.5122 45.0882 21.8242 44.5892 22.4395 44.2847Z" fill="#D30C0B"></path><path opacity="0.94" fill-rule="evenodd" clip-rule="evenodd" d="M31.9857 60.0078C34.607 59.9766 37.2274 60.0078 39.8472 60.1014C40.3774 60.2573 40.7207 60.6006 40.8766 61.1309C40.9702 62.8767 41.0013 64.6238 40.9702 66.3718C42.9678 66.3406 44.9644 66.3718 46.9599 66.4654C47.2942 66.6123 47.5749 66.8306 47.8022 67.1205C47.8958 71.9244 47.927 76.7285 47.8958 81.5331C49.909 81.2969 50.5952 82.108 49.9547 83.9664C49.7367 84.1693 49.4871 84.3253 49.206 84.4344C40.3464 84.5592 31.4865 84.5592 22.6269 84.4344C21.6725 84.1171 21.3294 83.462 21.5974 82.469C21.7534 82.0634 22.0341 81.7826 22.4397 81.6267C22.935 81.5337 23.4342 81.5024 23.9372 81.5331C23.9059 77.9139 23.9372 74.295 24.0307 70.6769C24.258 70.387 24.5387 70.1687 24.873 70.0218C26.8685 69.9282 28.8651 69.8969 30.8627 69.9282C30.8314 66.9951 30.8627 64.0626 30.9563 61.1309C31.0841 60.5358 31.4272 60.1615 31.9857 60.0078ZM33.8575 63.0026C33.8575 69.1795 33.8575 75.3563 33.8575 81.5331C35.2301 81.5331 36.6028 81.5331 37.9754 81.5331C37.9754 75.3563 37.9754 69.1795 37.9754 63.0026C36.6028 63.0026 35.2301 63.0026 33.8575 63.0026ZM40.9702 69.3667C40.9702 73.4222 40.9702 77.4776 40.9702 81.5331C42.2805 81.5331 43.5907 81.5331 44.9009 81.5331C44.9009 77.4776 44.9009 73.4222 44.9009 69.3667C43.5907 69.3667 42.2805 69.3667 40.9702 69.3667ZM26.932 72.923C26.932 75.793 26.932 78.6632 26.932 81.5331C28.2422 81.5331 29.5525 81.5331 30.8627 81.5331C30.8627 78.6632 30.8627 75.793 30.8627 72.923C29.5525 72.923 28.2422 72.923 26.932 72.923Z" fill="#D30C0B"></path></svg>