<svg xmlns="http://www.w3.org/2000/svg" width="108" height="109" viewBox="0 0 108 109" fill="none"><path opacity="0.919" fill-rule="evenodd" clip-rule="evenodd" d="M45.4739 0.632951C51.1826 0.497733 56.8653 0.639798 62.5218 1.05915C63.0863 1.43389 63.4179 1.95482 63.5162 2.62187C64.2376 6.32339 64.9951 10.0171 65.7893 13.703C68.5661 14.6412 71.2653 15.7777 73.887 17.1126C77.248 14.8162 80.6576 12.5903 84.1158 10.4355C84.9451 10.2786 85.7029 10.4682 86.3888 11.0037C90.0351 14.65 93.6816 18.2966 97.3279 21.9428C97.9302 23.0413 97.8353 24.0832 97.0437 25.0683C94.9517 28.0602 92.9156 31.091 90.9349 34.1605C92.2595 36.7151 93.3489 39.3672 94.2024 42.1161C98.2107 43.0506 102.236 43.9502 106.278 44.8154C106.718 45.1603 107.049 45.5865 107.272 46.094C107.549 51.8022 107.455 57.4848 106.988 63.1419C106.614 63.7064 106.093 64.038 105.426 64.1363C101.724 64.8577 98.0305 65.6152 94.3445 66.4094C93.4063 69.1862 92.2698 71.8854 90.9349 74.5071C93.2313 77.8681 95.4571 81.2777 97.612 84.7359C97.7688 85.5652 97.5793 86.323 97.0437 87.0089C93.2852 90.9575 89.3549 94.6986 85.2523 98.2321C84.4229 98.3889 83.6651 98.1994 82.9792 97.6638C79.9873 95.5718 76.9565 93.5357 73.887 91.555C71.3324 92.8796 68.6803 93.969 65.9313 94.8225C64.9968 98.8308 64.0973 102.856 63.2321 106.898C62.8872 107.338 62.461 107.67 61.9535 107.893C56.2453 108.17 50.5627 108.075 44.9056 107.608C44.341 107.234 44.0095 106.713 43.9112 106.046C43.1897 102.344 42.4323 98.6506 41.6381 94.9646C38.8613 94.0264 36.162 92.8899 33.5404 91.555C30.3587 93.7417 27.1386 95.8727 23.8799 97.948C22.8772 98.5316 21.9302 98.437 21.0386 97.6638C17.3923 94.0176 13.7458 90.371 10.0995 86.7248C9.49722 85.6263 9.59206 84.5844 10.3836 83.5993C12.4757 80.6074 14.5118 77.5766 16.4925 74.5071C15.1679 71.9525 14.0785 69.3004 13.225 66.5514C9.21811 65.6172 5.19291 64.7174 1.14938 63.8522C0.709315 63.5073 0.377819 63.0811 0.154918 62.5736C-0.122224 56.8654 -0.0275228 51.1828 0.439049 45.5257C0.81379 44.9611 1.33472 44.6296 2.00177 44.5313C5.70256 43.8101 9.39627 43.0524 13.0829 42.2582C14.0211 39.4814 15.1576 36.7821 16.4925 34.1605C14.0731 30.6463 11.8 27.0475 9.67332 23.3635C9.78669 22.8813 9.92876 22.4079 10.0995 21.9428C13.8407 18.2017 17.5816 14.4608 21.3227 10.7196C22.4212 10.1173 23.4631 10.2122 24.4482 11.0037C27.4401 13.0958 30.4709 15.1319 33.5404 17.1126C36.095 15.788 38.7471 14.6986 41.496 13.8451C42.4305 9.83679 43.3301 5.81162 44.1953 1.76948C44.5922 1.3233 45.0184 0.944472 45.4739 0.632951ZM47.7469 4.89492C51.7248 4.89492 55.7026 4.89492 59.6805 4.89492C60.3354 8.59554 61.0457 12.2892 61.8114 15.976C62.0123 16.4253 62.249 16.8515 62.5218 17.2546C66.4325 18.4781 70.2209 19.9459 73.887 21.6587C74.4934 21.6544 75.0616 21.5124 75.5918 21.2325C78.5044 19.0629 81.5353 17.1688 84.684 15.5499C87.3872 18.2056 90.0393 20.9049 92.6397 23.6476C90.7539 26.6222 88.8124 29.5581 86.815 32.4557C86.5351 32.9859 86.3931 33.5541 86.3888 34.1605C88.1016 37.8266 89.5694 41.6149 90.7928 45.5257C91.196 45.7985 91.6222 46.0352 92.0714 46.236C95.7583 47.0018 99.452 47.7121 103.153 48.367C103.153 52.3449 103.153 56.3227 103.153 60.3006C99.1506 60.9779 95.1727 61.7829 91.219 62.7157C90.3465 64.4781 89.6361 66.325 89.0881 68.2562C88.124 70.4202 87.1295 72.5512 86.1047 74.6492C87.9603 77.9332 89.9964 81.1061 92.2135 84.1676C92.4925 84.5253 92.5871 84.9041 92.4976 85.3041C89.8419 88.0073 87.1426 90.6594 84.3999 93.2598C81.4253 91.374 78.4894 89.4325 75.5918 87.4351C75.0616 87.1552 74.4934 87.0132 73.887 87.0089C70.2101 88.7029 66.4218 90.171 62.5218 91.4129C62.126 91.7457 61.889 92.1719 61.8114 92.6915C60.9727 96.3642 60.2624 100.058 59.6805 103.773C55.7026 103.773 51.7248 103.773 47.7469 103.773C47.092 100.072 46.3817 96.3784 45.6159 92.6915C45.4151 92.2423 45.1784 91.8161 44.9056 91.4129C41.0031 90.1693 37.2145 88.7012 33.5404 87.0089C32.934 87.0132 32.3658 87.1552 31.8356 87.4351C28.9229 89.6047 25.8921 91.4987 22.7434 93.1177C20.0401 90.462 17.3881 87.7627 14.7877 85.02C16.6735 82.0454 18.6149 79.1095 20.6124 76.2119C20.8923 75.6817 21.0343 75.1135 21.0386 74.5071C19.3446 70.8302 17.8765 67.0419 16.6345 63.1419C16.3018 62.7461 15.8756 62.5091 15.356 62.4315C11.6685 61.6655 7.97473 60.9552 4.27482 60.3006C4.27482 56.3227 4.27482 52.3449 4.27482 48.367C7.97544 47.7121 11.6691 47.0018 15.356 46.236C15.8052 46.0352 16.2314 45.7985 16.6345 45.5257C17.8782 41.6232 19.3463 37.8346 21.0386 34.1605C21.0343 33.5541 20.8923 32.9859 20.6124 32.4557C18.4428 29.543 16.5487 26.5122 14.9298 23.3635C17.5855 20.6602 20.2848 18.0082 23.0275 15.4078C26.0021 17.2936 28.938 19.235 31.8356 21.2325C32.3658 21.5124 32.934 21.6544 33.5404 21.6587C37.2065 19.9459 40.9948 18.4781 44.9056 17.2546C45.1784 16.8515 45.4151 16.4253 45.6159 15.976C46.3817 12.2892 47.092 8.59554 47.7469 4.89492ZM51.1565 31.035C63.8714 30.7819 72.2533 36.654 76.3021 48.6512C78.4229 59.8908 74.6817 68.5568 65.0789 74.6492C53.9291 79.8823 44.1265 78.0355 35.6713 69.1086C28.6627 59.2586 28.6627 49.4089 35.6713 39.559C39.8066 34.8165 44.9681 31.9752 51.1565 31.035ZM52.5772 39.2748C63.8518 40.1428 69.1082 46.2042 68.3465 57.4592C66.1456 64.7716 61.2207 68.7495 53.5716 69.3928C44.5553 68.3793 39.583 63.3598 38.6547 54.3338C39.4864 45.7377 44.1271 40.7179 52.5772 39.2748Z" fill="#D30C0B"></path></svg>